<!DOCTYPE svg PUBLIC "-//W3C//DTD SVG 1.1//EN" "http://www.w3.org/Graphics/SVG/1.1/DTD/svg11.dtd">
<!-- Uploaded to: SVG Repo, www.svgrepo.com, Transformed by: SVG Repo Mixer Tools -->
<svg fill="#000000" width="800px" height="800px" viewBox="0 0 24 24" id="milkshake-2" data-name="Flat Line" xmlns="http://www.w3.org/2000/svg" class="icon flat-line">
<g id="SVGRepo_bgCarrier" stroke-width="0"/>
<g id="SVGRepo_tracerCarrier" stroke-linecap="round" stroke-linejoin="round"/>
<g id="SVGRepo_iconCarrier">
<path id="secondary" d="M17,11l-1.37,9.15a1,1,0,0,1-1,.85H9.36a1,1,0,0,1-1-.85L7,11Z" style="fill: #fde7bc; stroke-width: 2;"/>
<path id="primary" d="M18,3H16a1,1,0,0,0-1,.89l-.21,1.88" style="fill: none; stroke: #494949; stroke-linecap: round; stroke-linejoin: round; stroke-width: 2;"/>
<path id="primary-2" data-name="primary" d="M17,11l-1.37,9.15a1,1,0,0,1-1,.85H9.36a1,1,0,0,1-1-.85L7,11ZM14.57,5.81A8,8,0,0,1,10.28,3,3.2,3.2,0,0,0,8,6.2a4.72,4.72,0,0,0-1,.73A2.89,2.89,0,0,0,6,9a2.62,2.62,0,0,0,1,2H17a2.62,2.62,0,0,0,1-1.64C18,8.93,18.41,7.07,14.57,5.81Z" style="fill: none; stroke: #494949; stroke-linecap: round; stroke-linejoin: round; stroke-width: 2;"/>
</g>
</svg>